HIERARCHY
ROOT Hips
{
	OFFSET -0.001795 -0.223333 0.028219
	CHANNELS 6 Xposition Yposition Zposition Zrotation Yrotation Xrotation 
	JOINT LeftUpLeg
	{
		OFFSET 0.069520 -0.091406 -0.006815
		CHANNELS 3 Zrotation Yrotation Xrotation
		JOINT LeftLeg
		{
			OFFSET 0.034277 -0.375199 -0.004496
			CHANNELS 3 Zrotation Yrotation Xrotation
			JOINT LeftFoot
			{
				OFFSET -0.013596 -0.397961 -0.043693
				CHANNELS 3 Zrotation Yrotation Xrotation
				JOINT LeftToe
				{
					OFFSET 0.026358 -0.055791 0.119288
					CHANNELS 3 Zrotation Yrotation Xrotation
					End Site
					{
						OFFSET 0.000000 0.000000 0.000000
					}
				}
			}
		}
	}
	JOINT RightUpLeg
	{
		OFFSET -0.067670 -0.090522 -0.004320
		CHANNELS 3 Zrotation Yrotation Xrotation
		JOINT RightLeg
		{
			OFFSET -0.038290 -0.382569 -0.008850
			CHANNELS 3 Zrotation Yrotation Xrotation
			JOINT RightFoot
			{
				OFFSET 0.015774 -0.398415 -0.042312
				CHANNELS 3 Zrotation Yrotation Xrotation
				JOINT RightToe
				{
					OFFSET -0.025372 -0.048144 0.123348
					CHANNELS 3 Zrotation Yrotation Xrotation
					End Site
					{
						OFFSET 0.000000 0.000000 0.000000
					}
				}
			}
		}
	}
	JOINT Spine
	{
		OFFSET -0.002533 0.108963 -0.026696
		CHANNELS 3 Zrotation Yrotation Xrotation
		JOINT Spine1
		{
			OFFSET 0.005487 0.135180 0.001092
			CHANNELS 3 Zrotation Yrotation Xrotation
			JOINT Spine2
			{
				OFFSET 0.001457 0.052922 0.025425
				CHANNELS 3 Zrotation Yrotation Xrotation
				JOINT Neck
				{
					OFFSET -0.002778 0.213870 -0.042857
					CHANNELS 3 Zrotation Yrotation Xrotation
					JOINT Head
					{
						OFFSET 0.005152 0.064970 0.051349
						CHANNELS 3 Zrotation Yrotation Xrotation
						End Site
						{
							OFFSET 0.000000 0.000000 0.000000
						}
					}
				}
				JOINT LeftShoulder
				{
					OFFSET 0.078845 0.121749 -0.034090
					CHANNELS 3 Zrotation Yrotation Xrotation
					JOINT LeftArm
					{
						OFFSET 0.090977 0.030469 -0.008868
						CHANNELS 3 Zrotation Yrotation Xrotation
						JOINT LeftForeArm
						{
							OFFSET 0.259612 -0.012772 -0.027456
							CHANNELS 3 Zrotation Yrotation Xrotation
							JOINT LeftHand
							{
								OFFSET 0.249234 0.008986 -0.001171
								CHANNELS 3 Zrotation Yrotation Xrotation
								End Site
								{
									OFFSET 0.000000 0.000000 0.000000
								}
							}
						}
					}
				}
				JOINT RightShoulder
				{
					OFFSET -0.081759 0.118833 -0.038615
					CHANNELS 3 Zrotation Yrotation Xrotation
					JOINT RightArm
					{
						OFFSET -0.096012 0.032551 -0.009143
						CHANNELS 3 Zrotation Yrotation Xrotation
						JOINT RightForeArm
						{
							OFFSET -0.253742 -0.013329 -0.021401
							CHANNELS 3 Zrotation Yrotation Xrotation
							JOINT RightHand
							{
								OFFSET -0.255298 0.007772 -0.005559
								CHANNELS 3 Zrotation Yrotation Xrotation
								End Site
								{
									OFFSET 0.000000 0.000000 0.000000
								}
							}
						}
					}
				}
			}
		}
	}
}
MOTION
Frames: 18
Frame Time: 0.050000
0.000000 0.948463 0.000000 -0.104522 -2.285282 8.040943 5.638510 -0.333236 -4.367354 0.821836 0.101844 -4.649703 2.168520 8.372406 14.373607 0.000000 0.000000 0.000000 -3.393259 0.500384 -4.865794 -3.438051 -0.052858 -5.693169 -0.775841 -6.550617 11.333843 0.000000 0.000000 0.000000 4.759079 0.239334 -4.773034 -2.983761 1.353834 -4.124978 -3.615818 4.468066 3.486002 4.583758 -2.387499 -7.784067 0.000000 0.000000 0.000000 -15.626446 -2.628419 -1.011597 -56.091216 -9.980851 -1.823113 -7.393187 -17.440770 1.653224 0.000000 0.000000 0.000000 14.753914 -4.241784 -2.787997 63.641046 5.919614 -2.623845 6.839855 19.149590 1.778652 0.000000 0.000000 0.000000 
0.000252 0.947682 0.000604 -0.293750 -3.079398 8.852282 5.365979 -0.326033 -4.076830 1.497742 0.137581 -6.338063 2.551523 8.937277 14.777476 0.000000 0.000000 0.000000 -3.508481 0.579829 -5.823448 -3.056972 -0.079579 -5.751530 -0.460492 -6.010386 11.217987 0.000000 0.000000 0.000000 5.749273 0.298901 -5.398491 -3.604689 1.598838 -4.582555 -4.399958 5.472457 3.336521 4.316791 -2.055294 -8.426715 0.000000 0.000000 0.000000 -16.203562 -2.160141 -1.467854 -55.636455 -10.103814 -1.709817 -7.360579 -16.451228 1.535079 0.000000 0.000000 0.000000 14.265909 -5.765328 -3.395762 65.345744 5.309171 -2.886146 6.914980 19.077445 1.805285 0.000000 0.000000 0.000000 
0.000435 0.947570 0.001004 -0.012276 -2.950889 8.615616 5.171049 -0.332423 -4.216928 1.292977 0.116959 -5.676107 2.500290 8.835533 14.557266 0.000000 0.000000 0.000000 -3.738785 0.580017 -5.870920 -3.200642 -0.031137 -5.127300 -0.605743 -6.164301 10.893524 0.000000 0.000000 0.000000 5.470054 0.282875 -5.228496 -3.445864 1.522870 -5.218270 -4.880996 5.137037 3.424024 4.231239 -2.273792 -6.691607 0.000000 0.000000 0.000000 -15.861500 -2.180456 -1.371068 -55.557786 -9.621346 -1.962823 -7.511827 -15.116730 1.435646 0.000000 0.000000 0.000000 15.630621 -4.847622 -3.086472 63.777013 4.575324 -3.355349 7.000711 19.340107 1.841533 0.000000 0.000000 0.000000 
0.000529 0.947351 0.001428 0.069855 -2.979269 8.996701 5.255099 -0.342557 -4.357310 0.976124 0.156572 -6.116767 2.497058 8.848023 14.675651 0.000000 0.000000 0.000000 -3.943501 0.608132 -6.227808 -3.032735 -0.045265 -5.198789 -0.623963 -6.196007 10.882447 0.000000 0.000000 0.000000 5.410645 0.304087 -5.537085 -3.905626 1.724919 -4.622950 -4.637459 4.440433 2.190552 3.514513 -1.920797 -5.746186 0.000000 0.000000 0.000000 -15.896462 -1.510217 -1.593744 -56.254253 -9.982202 -1.695131 -6.128441 -13.961421 1.169847 0.000000 0.000000 0.000000 14.384941 -5.087020 -3.239009 64.683492 4.215806 -3.428060 7.926825 19.343596 1.944776 0.000000 0.000000 0.000000 
0.000541 0.947547 0.001778 0.207354 -2.406906 8.744717 4.986174 -0.339227 -4.153046 1.283592 0.141856 -6.168541 2.176412 8.424420 14.645045 0.000000 0.000000 0.000000 -3.944129 0.583045 -5.951609 -3.199185 -0.018488 -4.965665 -0.898429 -6.639800 10.837519 0.000000 0.000000 0.000000 4.996792 0.280890 -5.337965 -3.503671 1.563223 -4.572997 -4.894783 3.844782 2.107642 3.270461 -1.679924 -6.267624 0.000000 0.000000 0.000000 -15.986453 -1.607148 -1.520622 -56.235947 -10.046891 -1.654876 -6.101104 -12.987196 1.088736 0.000000 0.000000 0.000000 14.497850 -5.094129 -3.289212 64.531420 4.066295 -3.513145 8.021731 19.323197 1.950019 0.000000 0.000000 0.000000 
0.000506 0.947733 0.002069 0.224950 -2.514758 8.964118 4.960980 -0.343125 -4.194200 1.277079 0.155879 -6.452367 2.204968 8.490085 14.825499 0.000000 0.000000 0.000000 -3.997708 0.591660 -6.039087 -3.158828 -0.039729 -5.245165 -0.827350 -6.563657 10.988662 0.000000 0.000000 0.000000 4.851936 0.299369 -5.602288 -3.558570 1.582608 -4.697469 -4.806811 3.697686 1.947318 3.120086 -1.599582 -6.139865 0.000000 0.000000 0.000000 -16.058113 -1.356987 -1.611562 -56.653724 -9.997445 -1.675921 -5.401475 -12.418123 0.970875 0.000000 0.000000 0.000000 14.056348 -5.130655 -3.299996 65.029129 4.015135 -3.542058 8.026877 19.109245 1.914744 0.000000 0.000000 0.000000 
0.000423 0.947979 0.002205 0.194999 -2.074608 8.995443 4.966730 -0.349606 -4.236879 1.419630 0.154520 -6.572736 1.969877 8.194966 14.864384 0.000000 0.000000 0.000000 -3.833437 0.582967 -5.946225 -3.306583 -0.034101 -5.302352 -1.005037 -6.892296 11.121891 0.000000 0.000000 0.000000 4.650653 0.301300 -5.697484 -3.359537 1.504240 -4.640524 -4.839805 3.269872 1.828388 3.192916 -1.582277 -6.700380 0.000000 0.000000 0.000000 -15.931420 -1.186338 -1.648865 -57.094738 -9.740200 -1.806158 -5.359675 -12.387387 0.965487 0.000000 0.000000 0.000000 14.163621 -5.121089 -3.336266 65.114801 3.883247 -3.618798 7.684223 19.170683 1.864129 0.000000 0.000000 0.000000 
0.000418 0.948318 0.002193 0.143965 -1.884936 9.050705 4.852820 -0.364028 -4.464846 1.757121 0.125450 -6.342837 1.886656 8.096503 14.876466 0.000000 0.000000 0.000000 -3.797985 0.582320 -5.942569 -3.234277 -0.040863 -5.353386 -1.065467 -7.026138 11.263766 0.000000 0.000000 0.000000 4.413254 0.298623 -5.732477 -3.219119 1.447717 -4.597082 -4.814039 3.217409 1.529077 3.170039 -1.617644 -6.272763 0.000000 0.000000 0.000000 -15.942772 -0.941085 -1.792605 -57.146849 -9.557792 -1.865553 -5.572889 -12.672984 1.007500 0.000000 0.000000 0.000000 14.050945 -5.143616 -3.330129 65.287182 3.863262 -3.595417 7.775669 18.983861 1.855587 0.000000 0.000000 0.000000 
0.000407 0.948593 0.002118 0.192283 -1.695868 9.024765 4.852839 -0.372691 -4.613983 1.700105 0.117002 -6.112701 1.787694 7.969516 14.872443 0.000000 0.000000 0.000000 -3.822687 0.576231 -5.874328 -3.247917 -0.040558 -5.370722 -1.139847 -7.169318 11.350400 0.000000 0.000000 0.000000 4.178253 0.285719 -5.629465 -3.157877 1.421873 -4.827005 -4.674989 3.097113 1.541729 3.220739 -1.608566 -6.628842 0.000000 0.000000 0.000000 -15.779227 -0.807740 -1.823064 -57.426539 -9.631713 -1.848743 -5.740450 -12.770099 1.034837 0.000000 0.000000 0.000000 14.103486 -4.995987 -3.271687 65.109331 4.157370 -3.430898 7.661286 18.884820 1.825215 0.000000 0.000000 0.000000 
0.000429 0.948671 0.002090 0.201025 -1.695862 8.975128 4.823358 -0.375379 -4.671055 1.731376 0.105488 -5.921250 1.795631 7.974655 14.837897 0.000000 0.000000 0.000000 -3.864451 0.569874 -5.785723 -3.190027 -0.047897 -5.436500 -1.129821 -7.159266 11.383588 0.000000 0.000000 0.000000 4.036211 0.285654 -5.644255 -3.166471 1.427017 -4.700003 -4.547373 3.068478 1.347494 3.192568 -1.582482 -6.679544 0.000000 0.000000 0.000000 -15.701712 -0.569028 -1.923865 -57.450961 -9.756710 -1.773509 -6.326469 -13.040165 1.121116 0.000000 0.000000 0.000000 14.152419 -4.635172 -3.110615 64.871072 4.435029 -3.253146 7.654619 18.799557 1.810406 0.000000 0.000000 0.000000 
0.000424 0.948708 0.002165 0.137412 -1.921425 8.855305 4.864472 -0.361798 -4.469145 1.734285 0.106400 -5.951734 1.906202 8.118116 14.854488 0.000000 0.000000 0.000000 -3.850235 0.563252 -5.680125 -3.122704 -0.053610 -5.460185 -1.013003 -6.962098 11.371788 0.000000 0.000000 0.000000 4.037595 0.282397 -5.557940 -3.238585 1.455236 -4.678459 -4.375356 3.168923 1.208844 3.169158 -1.584110 -6.552937 0.000000 0.000000 0.000000 -15.764448 -0.613258 -1.904555 -57.397905 -9.780493 -1.744123 -6.656019 -13.047544 1.157853 0.000000 0.000000 0.000000 14.200239 -4.435451 -3.028476 64.751838 4.757504 -3.060892 7.811519 18.639764 1.812556 0.000000 0.000000 0.000000 
0.000448 0.948577 0.002346 0.108643 -1.960002 8.824225 4.975648 -0.357765 -4.420971 1.583766 0.114210 -5.938144 1.935016 8.145022 14.799892 0.000000 0.000000 0.000000 -3.786848 0.559573 -5.623693 -3.188228 -0.052342 -5.490683 -0.995695 -6.925183 11.342242 0.000000 0.000000 0.000000 4.015599 0.286350 -5.604560 -3.222241 1.449906 -4.526785 -4.132001 2.946653 0.944386 2.970640 -1.432267 -6.734188 0.000000 0.000000 0.000000 -15.916919 -0.271096 -2.043277 -57.363116 -9.816583 -1.695375 -6.725291 -12.834866 1.149855 0.000000 0.000000 0.000000 14.093873 -4.277821 -2.992950 64.569187 4.879764 -2.974635 8.095888 18.606531 1.837689 0.000000 0.000000 0.000000 
0.000527 0.948675 0.002564 0.007651 -2.048647 8.733138 4.944527 -0.351161 -4.316028 1.803161 0.098448 -5.880249 1.989824 8.214710 14.783733 0.000000 0.000000 0.000000 -3.652857 0.560403 -5.640561 -3.249089 -0.035695 -5.285646 -0.952996 -6.846197 11.306041 0.000000 0.000000 0.000000 4.001316 0.287510 -5.596540 -3.008739 1.360444 -4.434255 -4.104452 2.980019 0.606521 3.019178 -1.508737 -6.385226 0.000000 0.000000 0.000000 -15.955676 -0.133199 -2.124049 -57.091157 -9.503228 -1.806095 -7.208520 -12.538135 1.172500 0.000000 0.000000 0.000000 14.088730 -4.346154 -3.034342 64.454268 4.853378 -2.949465 8.268498 18.470422 1.843197 0.000000 0.000000 0.000000 
0.000705 0.948784 0.002713 -0.051512 -2.022549 8.693766 4.902371 -0.351930 -4.326649 1.974103 0.082881 -5.772557 1.987967 8.209682 14.754334 0.000000 0.000000 0.000000 -3.587066 0.571472 -5.804435 -3.265857 -0.008197 -4.887092 -0.985010 -6.878551 11.220926 0.000000 0.000000 0.000000 3.989889 0.282519 -5.531376 -3.003478 1.358443 -4.450156 -3.865561 2.882134 0.395072 2.972254 -1.512894 -6.128260 0.000000 0.000000 0.000000 -15.971496 -0.076831 -2.132478 -56.994511 -9.257274 -1.899854 -7.303242 -12.149957 1.146790 0.000000 0.000000 0.000000 13.881055 -4.264650 -2.997943 64.382052 4.615432 -3.060032 8.452413 18.818845 1.903407 0.000000 0.000000 0.000000 
0.000969 0.948854 0.002799 -0.017076 -2.077089 8.681684 4.869895 -0.353721 -4.371574 1.921949 0.079155 -5.646943 2.017732 8.245333 14.739267 0.000000 0.000000 0.000000 -3.610945 0.574353 -5.845468 -3.331255 0.001267 -4.801336 -0.965492 -6.847460 11.215271 0.000000 0.000000 0.000000 4.068781 0.287186 -5.571557 -2.907381 1.316317 -4.560985 -3.950905 3.017113 0.333798 3.177935 -1.654010 -6.115565 0.000000 0.000000 0.000000 -15.832907 -0.022689 -2.164861 -56.869407 -8.984864 -2.025673 -7.399032 -11.922704 1.132490 0.000000 0.000000 0.000000 13.858272 -4.453865 -3.069191 64.166814 4.396846 -3.156868 8.596790 18.813957 1.927606 0.000000 0.000000 0.000000 
0.001227 0.948869 0.002821 0.093331 -2.105618 8.613978 4.754735 -0.348471 -4.257055 1.871891 0.085865 -5.719770 2.010741 8.237863 14.767249 0.000000 0.000000 0.000000 -3.670866 0.574155 -5.851977 -3.476028 0.018784 -4.667815 -0.971261 -6.844770 11.158086 0.000000 0.000000 0.000000 4.079974 0.278860 -5.453130 -2.843861 1.288246 -4.721976 -4.018910 3.229772 0.320529 3.219249 -1.686085 -6.026611 0.000000 0.000000 0.000000 -15.870522 -0.066536 -2.190521 -56.532475 -8.720149 -2.137336 -7.522232 -11.645095 1.114795 0.000000 0.000000 0.000000 14.044846 -4.529991 -3.093908 63.931110 4.182288 -3.255334 8.580542 18.882150 1.940287 0.000000 0.000000 0.000000 
0.001453 0.948870 0.002835 0.145586 -2.173837 8.616263 4.675033 -0.339517 -4.072141 1.869225 0.102293 -6.031044 2.016157 8.255669 14.856839 0.000000 0.000000 0.000000 -3.669415 0.577053 -5.890417 -3.620647 0.029808 -4.627446 -0.947489 -6.804643 11.144846 0.000000 0.000000 0.000000 4.134353 0.280361 -5.455691 -2.738718 1.244045 -4.643569 -4.073119 3.248787 0.183275 3.256281 -1.710230 -6.032579 0.000000 0.000000 0.000000 -15.769246 -0.037548 -2.192893 -56.371353 -8.485722 -2.231456 -7.556215 -11.582303 1.111509 0.000000 0.000000 0.000000 14.116656 -4.548010 -3.113845 63.590613 4.014849 -3.321160 8.647280 19.077198 1.972281 0.000000 0.000000 0.000000 
0.001590 0.948870 0.002816 0.229727 -2.133597 8.625793 4.625468 -0.341287 -4.087822 1.785402 0.108039 -6.048612 1.985075 8.215863 14.868149 0.000000 0.000000 0.000000 -3.707591 0.574638 -5.859776 -3.728381 0.031783 -4.691815 -0.968468 -6.845427 11.163765 0.000000 0.000000 0.000000 4.174043 0.276660 -5.411857 -2.574849 1.174706 -4.818119 -4.234777 3.335363 0.240868 3.470463 -1.832661 -6.202636 0.000000 0.000000 0.000000 -15.856155 -0.101845 -2.201358 -56.079402 -8.397740 -2.261909 -7.980833 -11.486660 1.141189 0.000000 0.000000 0.000000 14.327586 -4.798281 -3.236560 63.272641 3.968382 -3.334423 8.839407 19.068418 2.006369 0.000000 0.000000 0.000000 
